<svg xmlns="http://www.w3.org/2000/svg" viewBox="0 0 300 300" fill-rule="evenodd" stroke-linejoin="round" stroke-miterlimit="1.414"><path d="M1904.51 793.676l-24.52 16.365-25.26-37.855 24.52-16.365 25.26 37.855z" fill="url(#a)" transform="translate(-1931.394 -828.704) scale(1.1171)"/><path d="M234.942 179.915l41.895 62.78L226.93 276l-41.895-62.781-7.309-10.951 49.908-33.305 7.308 10.952z" fill="url(#b)" transform="translate(-44.052 -16.03) scale(1.1171)"/><path d="M172.083 221.862l9.224 13.822-37.987 25.35-16.533-24.774 8.299-5.538 29.689-19.812 7.308 10.952z" fill="url(#c)" transform="translate(-44.052 -16.03) scale(1.1171)"/><path d="M255.696 150.236l10.655-7.11 16.532 24.774-24.523 16.365-9.224-13.822 13.868-9.255-7.308-10.952zm-6.56 20.207l-7.308-10.952 13.868-9.255 7.308 10.952-13.868 9.255z" fill="url(#d)" transform="translate(-44.052 -16.03) scale(1.1171)"/><path d="M83.746 153.788l-8.298 5.538-25.262-37.855 37.987-25.35 17.707 26.535-29.688 19.812 29.688-19.812 7.555 11.321-29.689 19.811z" fill="url(#e)" transform="translate(-44.052 -16.03) scale(1.1171)"/><path d="M168.74 80.708l7.554 11.321-49.908 33.305-7.554-11.321-41.503-62.192 49.908-33.305 41.503 62.192z" fill="url(#f)" transform="translate(-44.052 -16.03) scale(1.1171)"/><path d="M204.356 73.303l-13.868 9.254-7.555-11.32-17.707-26.535 24.523-16.365 25.262 37.855-10.655 7.111z" fill="url(#g)" transform="translate(-44.052 -16.03) scale(1.1171)"/><path d="M115.018 253.943l-8.165-12.235 33.165-22.131 8.164 12.234-33.164 22.132z" fill="#714896"/><path d="M234.258 174.37l-8.164-12.234 15.492-10.338 8.164 12.234-15.492 10.339z" fill="#6f4795"/><path d="M49.5 155.766l-8.438-12.646 33.165-22.132 8.44 12.647-33.166 22.13z" fill="#88519f"/><path d="M168.742 76.194l-8.44-12.646 15.494-10.339 8.438 12.647-15.492 10.338z" fill="#85509e"/><path d="M218.402 184.952l-55.751 37.204-8.165-12.233 55.752-37.205 8.164 12.234z" fill="#8d166a"/><path d="M144.448 74.128l8.438 12.647-55.752 37.205-8.439-12.647 55.753-37.205z" fill="#a70d6f"/><path fill="#9e61ad" d="M33.688 64.023l10.523 15.77-15.77 10.522L17.92 74.546z"/><path fill="#8053a3" d="M90.516 253.064l10.523 15.77-15.77 10.522-10.522-15.769z"/><path d="M1015.85 2781.73l-52.745-53.14 187.685-188.08 54.52 51.77-189.46 189.45z" fill="url(#h)" transform="rotate(11.284 14958.366 -3807.25) scale(1.1171)"/><defs><linearGradient x1="0" y1="0" x2="1" y2="0" id="a" gradientUnits="userSpaceOnUse" gradientTransform="rotate(45 12.777 2344.342) scale(440.583)"><stop offset="0" stop-color="#c06fbb"/><stop offset="1" stop-color="#6e4d9b"/></linearGradient><linearGradient x1="0" y1="0" x2="1" y2="0" id="b" gradientUnits="userSpaceOnUse" gradientTransform="matrix(-168.486 -248.455 240.79 -173.85 250.023 259.328)"><stop offset="0" stop-color="#6e4d9b"/><stop offset=".14" stop-color="#77327a"/><stop offset=".29" stop-color="#b31777"/><stop offset=".84" stop-color="#cd0f7e"/><stop offset="1" stop-color="#ed2c89"/></linearGradient><linearGradient x1="0" y1="0" x2="1" y2="0" id="c" gradientUnits="userSpaceOnUse" gradientTransform="scale(440.583 563.764) rotate(45 .261 -.198)"><stop offset="0" stop-color="#c06fbb"/><stop offset="1" stop-color="#6e4d9b"/></linearGradient><linearGradient x1="0" y1="0" x2="1" y2="0" id="d" gradientUnits="userSpaceOnUse" gradientTransform="scale(535.998 440.583) rotate(45 .048 -.271)"><stop offset="0" stop-color="#c06fbb"/><stop offset="1" stop-color="#6e4d9b"/></linearGradient><linearGradient x1="0" y1="0" x2="1" y2="0" id="e" gradientUnits="userSpaceOnUse" gradientTransform="scale(500.345 440.583) rotate(45 .098 -.15)"><stop offset="0" stop-color="#c06fbb"/><stop offset="1" stop-color="#6e4d9b"/></linearGradient><linearGradient x1="0" y1="0" x2="1" y2="0" id="f" gradientUnits="userSpaceOnUse" gradientTransform="matrix(-168.959 -249.473 241.466 -174.562 266.435 289.783)"><stop offset="0" stop-color="#6e4d9b"/><stop offset=".14" stop-color="#77327a"/><stop offset=".29" stop-color="#b31777"/><stop offset=".84" stop-color="#cd0f7e"/><stop offset="1" stop-color="#ed2c89"/></linearGradient><linearGradient x1="0" y1="0" x2="1" y2="0" id="g" gradientUnits="userSpaceOnUse" gradientTransform="scale(440.583 531.26) rotate(45 .118 -.139)"><stop offset="0" stop-color="#c06fbb"/><stop offset="1" stop-color="#6e4d9b"/></linearGradient><linearGradient x1="0" y1="0" x2="1" y2="0" id="h" gradientUnits="userSpaceOnUse" gradientTransform="rotate(-44.562 3859.113 170.168) scale(268.404)"><stop offset="0" stop-color="#6e4d9b"/><stop offset=".14" stop-color="#77327a"/><stop offset=".53" stop-color="#b31777"/><stop offset=".79" stop-color="#cd0f7e"/><stop offset="1" stop-color="#ed2c89"/></linearGradient></defs></svg>