<svg width="168" height="52" viewBox="0 0 168 52" xmlns="http://www.w3.org/2000/svg"><g fill="none" fill-rule="evenodd"><path d="M159.645 49.945h.392c.413 0 .672-.149.672-.377 0-.257-.275-.367-.683-.367a2.45 2.45 0 00-.38.02v.724zm-.385-.904a6.31 6.31 0 01.737-.041c.41 0 .682.05.868.162a.448.448 0 01.233.379c0 .259-.251.433-.563.503v.01a.584.584 0 01.44.401c.098.276.166.468.227.545h-.402c-.045-.059-.115-.227-.192-.474-.087-.273-.253-.379-.601-.388h-.362V51h-.385v-1.959zm-.708.959c0-.951.752-1.726 1.68-1.726.926 0 1.676.775 1.676 1.726 0 .955-.75 1.725-1.676 1.725-.928 0-1.68-.77-1.68-1.725m-.263 0c0-1.104.87-2 1.943-2 1.07 0 1.941.896 1.941 2 0 1.103-.87 2-1.94 2-1.073 0-1.944-.897-1.944-2zM86.428 35.994c0 .43-.026.895-.082 1.396-.054.5-.12.994-.201 1.48L83.954 52h-4.176l2.067-12.572c.053-.401.1-.787.143-1.159a9.41 9.41 0 00.062-1.03c0-1.43-.265-2.482-.792-3.154-.526-.672-1.412-1.01-2.656-1.01-1.296 0-2.42.532-3.366 1.59-.946 1.059-1.607 2.66-1.987 4.805L71.182 52h-4.176l3.77-22.528h4.176l-.326 1.931a8.34 8.34 0 012.172-1.694c.85-.472 1.885-.709 3.101-.709 2.11 0 3.725.588 4.846 1.76 1.123 1.173 1.683 2.917 1.683 5.234zm17.224-.899a12.491 12.491 0 00-2.778-1.617c-1.023-.435-2.142-.652-3.358-.652-.913 0-1.632.182-2.157.546-.523.365-.8.87-.829 1.515-.028.307 0 .588.083.84s.264.505.54.757c.276.253.683.534 1.223.84.538.31 1.264.674 2.175 1.095.94.45 1.785.89 2.53 1.324.747.435 1.368.924 1.866 1.471a5.07 5.07 0 011.078 1.83c.22.673.29 1.47.207 2.396-.083 1.235-.38 2.27-.892 3.112-.511.84-1.146 1.514-1.906 2.019a7.893 7.893 0 01-2.53 1.092c-.926.226-1.844.337-2.756.337-1.907 0-3.6-.322-5.08-.967-1.478-.646-2.7-1.415-3.67-2.313l2.28-3.195a12.268 12.268 0 003.027 1.913c1.106.49 2.377.735 3.816.735 1.05 0 1.892-.216 2.529-.652.636-.432.967-1.058.994-1.87a2.076 2.076 0 00-.104-.883c-.096-.28-.283-.553-.559-.82-.277-.266-.657-.533-1.14-.8a23.59 23.59 0 00-1.887-.903 31.574 31.574 0 01-2.798-1.387c-.787-.45-1.437-.947-1.948-1.494a4.64 4.64 0 01-1.078-1.829c-.207-.672-.27-1.471-.187-2.396.083-1.038.331-1.941.747-2.713a5.845 5.845 0 011.615-1.912 6.894 6.894 0 012.323-1.136A10.366 10.366 0 0197.889 29c1.797 0 3.35.273 4.665.82 1.312.546 2.41 1.156 3.296 1.828l-2.198 3.447zM124.412 52h-3.871l-1.031-11.692a37.862 37.862 0 01-.123-2.179 62.254 62.254 0 01-.042-1.97c-.083.224-.185.51-.309.86-.123.35-.255.72-.391 1.11-.139.391-.288.776-.454 1.153-.165.377-.302.719-.412 1.026L112.63 52h-3.872l-1.937-22h4.283l.66 11.314c.027.615.055 1.327.084 2.137.027.813.04 1.453.04 1.928.165-.475.398-1.11.7-1.906.302-.797.577-1.515.824-2.16L118.562 30h3.626l1.071 11.314c.054.644.095 1.362.124 2.159.027.795.041 1.43.041 1.906.164-.475.398-1.115.7-1.928.302-.81.563-1.522.783-2.137L129.645 30h4.367l-9.6 22zm26.108-14.087c0 .731-.047 1.439-.143 2.125-.097.685-.23 1.339-.394 1.954H136.22c-.166 1.935.226 3.435 1.178 4.499.951 1.065 2.224 1.599 3.824 1.599.88 0 1.713-.161 2.5-.483a15.44 15.44 0 002.374-1.242l1.862 3.028c-1.129.868-2.28 1.522-3.452 1.955-1.171.435-2.46.652-3.864.652-1.405 0-2.666-.253-3.783-.757a7.417 7.417 0 01-2.79-2.164c-.742-.941-1.288-2.076-1.633-3.408-.342-1.329-.447-2.81-.309-4.435.137-1.88.503-3.574 1.096-5.088.594-1.514 1.364-2.803 2.315-3.87.95-1.064 2.032-1.877 3.245-2.437a9.129 9.129 0 013.885-.841c1.294 0 2.431.225 3.409.671a6.883 6.883 0 012.46 1.873c.662.798 1.157 1.739 1.486 2.817.331 1.08.496 2.265.496 3.552zm-4.048.59c.137-1.597-.133-2.928-.806-3.995-.677-1.065-1.827-1.599-3.452-1.599-1.46 0-2.64.526-3.535 1.578-.895 1.051-1.537 2.39-1.92 4.016h9.713zm19.75-3.967c-.33-.286-.752-.537-1.263-.751-.51-.215-1.11-.321-1.799-.321-.662 0-1.276.1-1.84.3-.567.2-1.076.542-1.532 1.03-.455.486-.849 1.122-1.179 1.908-.332.788-.594 1.781-.787 2.983L155.753 52h-4.262l3.848-22.528h4.262l-.372 2.06a7.993 7.993 0 012.234-1.824c.855-.472 1.806-.708 2.856-.708.882 0 1.62.122 2.212.365.592.243 1.083.537 1.469.88l-1.779 4.29zM63.917 30.45c1.411.967 2.117 2.502 2.117 4.605 0 .308-.015.61-.04.903-.03.294-.07.596-.127.904l-2.56 14.675h-4.236l.336-1.976a9.864 9.864 0 01-2.496 1.725c-.965.477-2.077.714-3.335.714a8.906 8.906 0 01-2.832-.442 6.131 6.131 0 01-2.285-1.345c-.645-.603-1.134-1.353-1.47-2.25-.335-.896-.447-1.933-.335-3.11.084-1.29.4-2.412.944-3.365a7.39 7.39 0 012.098-2.355 8.956 8.956 0 012.873-1.368 12.466 12.466 0 013.314-.44c1.062 0 2.097.106 3.105.315 1.006.21 1.788.47 2.349.779l.293-1.598c.056-.224.09-.45.105-.672.014-.225.022-.421.022-.59 0-.953-.323-1.64-.965-2.06-.645-.422-1.665-.631-3.063-.631a11.33 11.33 0 00-4.126.756c.38-.953.556-1.984.458-3.008l-.095-.978c.102-.03.197-.062.302-.09 1.3-.366 2.622-.548 3.964-.548 2.377 0 4.273.483 5.685 1.45zM60.12 45.567l.63-3.575c-.588-.308-1.302-.566-2.14-.778-.839-.21-1.819-.315-2.936-.315-1.4 0-2.539.337-3.42 1.01-.88.672-1.35 1.639-1.405 2.9-.056.982.223 1.802.84 2.461.614.659 1.607.989 2.977.989a6.125 6.125 0 003.105-.82c.95-.548 1.734-1.172 2.35-1.872z" fill="#333"/><path d="M51.44 30.093L49 4.34c-.296-3.114-2.885-4.968-5.784-4.143L4.742 11.154c-2.898.825-5.01 4.019-4.714 7.133l2.44 25.758c.296 3.113 2.885 4.966 5.784 4.142l9.524-2.714c1.723-.17 4.52.516 5.434 6.383l.027.144 2.427-4.03v-.008c1.13-1.525 2.146-4.91 8.246-7.082l12.817-3.65c2.899-.827 5.008-4.02 4.714-7.137zm-7.036-3.275c-.29.277-.612.497-.963.667-.352.17-.687.295-1.006.374-.959.24-1.738.185-2.338-.166-.6-.35-1.003-.956-1.209-1.816a3.844 3.844 0 01-.08-.448 6.465 6.465 0 01-.042-.508l-.52-8.109-1.89.474-.152-2.533 1.892-.474-.257-3.987 2.452-2.148.351 5.498 3.127-.786.15 2.537-3.126.782.497 7.566c.012.27.045.52.097.74.157.657.63.883 1.42.687.404-.102.735-.24.997-.416a4.12 4.12 0 00.752-.652l-.152 2.718zm-7.683.228a4.051 4.051 0 01-.864 1.531 4.982 4.982 0 01-1.378 1.057 7.264 7.264 0 01-1.628.627c-1.16.29-2.237.35-3.23.18-.995-.172-1.851-.458-2.571-.862l.917-2.31a7.54 7.54 0 002.123.716c.744.131 1.553.086 2.426-.133.64-.158 1.121-.42 1.443-.784.324-.362.434-.797.332-1.3a1.35 1.35 0 00-.194-.526 1.311 1.311 0 00-.46-.42 3.395 3.395 0 00-.81-.317c-.333-.088-.76-.18-1.28-.266a19.287 19.287 0 01-1.906-.427 5.062 5.062 0 01-1.404-.62 2.91 2.91 0 01-.924-.958c-.225-.382-.38-.864-.465-1.444-.103-.65-.083-1.242.055-1.78.14-.536.374-1.01.704-1.42.328-.412.745-.76 1.246-1.051a6.474 6.474 0 011.683-.669c1.093-.273 2.079-.342 2.957-.207.88.137 1.637.344 2.274.62l-.831 2.454a7.639 7.639 0 00-1.927-.571 5.248 5.248 0 00-2.138.112c-.555.138-.965.359-1.231.662-.266.306-.36.658-.282 1.056.028.195.086.363.173.505.089.141.234.27.44.383.205.112.494.224.866.33.374.106.868.22 1.485.34.637.132 1.215.275 1.732.429.518.153.968.358 1.35.618.383.261.692.58.925.958.234.38.392.861.478 1.441.13.772.102 1.452-.086 2.046zm-13.495 5.325l-.077-1.213c-.274.49-.642.942-1.104 1.358-.463.417-1.071.72-1.828.908-1.31.33-2.4.227-3.266-.303-.867-.532-1.466-1.493-1.799-2.889a7.603 7.603 0 01-.15-.852 14.974 14.974 0 01-.086-.922l-.527-8.241 2.598-.652.52 7.888c.025.25.051.489.08.72.027.23.064.44.11.63.206.86.521 1.452.945 1.773.424.324 1.024.388 1.797.194.806-.203 1.432-.695 1.877-1.484.445-.785.621-1.852.532-3.197l-.515-7.864 2.596-.65.894 14.144-2.597.652zm-10 4.352a4.942 4.942 0 01-.588 1.844c-.308.543-.748 1.024-1.322 1.453-.575.426-1.32.819-2.232 1.176l-1.129-2.154c.56-.269 1.024-.523 1.395-.76a2.99 2.99 0 00.863-.805 2.62 2.62 0 00.415-1.063c.071-.41.088-.92.048-1.53L9.8 21.366l2.597-.652.877 13.629c.054.9.039 1.692-.046 2.38zM9.375 16.505a1.647 1.647 0 011.051-.797c.438-.11.856-.037 1.255.219.4.256.658.624.772 1.106.112.465.047.907-.191 1.321-.24.417-.578.678-1.015.788a1.61 1.61 0 01-1.294-.21 1.69 1.69 0 01-.778-1.078 1.756 1.756 0 01.2-1.35z" fill="#52BAD5"/></g></svg>