<svg width="16" height="20" viewBox="0 0 16 20" xmlns="http://www.w3.org/2000/svg" xmlns:xlink="http://www.w3.org/1999/xlink"><defs><path d="M.62 18.43L0 1.92A1.006 1.006 0 01.944.88l14.04-.878a1.006 1.006 0 011.069 1.004v17.988A1.006 1.006 0 0115.002 20L1.58 19.396a1.006 1.006 0 01-.96-.967z" id="a"/></defs><g fill="none" fill-rule="evenodd"><mask id="b" fill="#fff"><use xlink:href="#a"/></mask><use fill="#FF4785" fill-rule="nonzero" xlink:href="#a"/><path d="M11.854 2.458L11.95.152 13.878 0l.083 2.379a.15.15 0 01-.243.123l-.743-.586-.88.668a.15.15 0 01-.241-.126zm-2.466 5.08c0 .391 2.635.204 2.988-.07 0-2.665-1.429-4.065-4.047-4.065-2.617 0-4.084 1.422-4.084 3.554 0 3.715 5.013 3.786 5.013 5.812 0 .568-.279.906-.892.906-.798 0-1.113-.408-1.076-1.794 0-.3-3.045-.394-3.138 0-.236 3.36 1.857 4.328 4.252 4.328 2.32 0 4.14-1.237 4.14-3.476 0-3.98-5.087-3.874-5.087-5.847 0-.8.594-.906.947-.906.37 0 1.04.065.984 1.558z" fill="#FFF" fill-rule="nonzero" mask="url(#b)"/></g></svg>