<svg xmlns="http://www.w3.org/2000/svg" width="300" height="300"><path d="M250 87.974a82.023 82.023 0 0 1-23.566 6.461c8.471-5.078 14.978-13.119 18.041-22.701a82.14 82.14 0 0 1-26.057 9.957c-7.484-7.975-18.148-12.957-29.95-12.957-22.66 0-41.033 18.371-41.033 41.031 0 3.216.363 6.348 1.062 9.351-34.102-1.711-64.336-18.047-84.574-42.872a40.837 40.837 0 0 0-5.556 20.628c0 14.236 7.244 26.795 18.254 34.153a40.87 40.87 0 0 1-18.585-5.132c-.004.171-.004.343-.004.516 0 19.88 14.144 36.464 32.915 40.234a41.076 41.076 0 0 1-18.53.703c5.222 16.301 20.375 28.165 38.331 28.495-14.043 11.006-31.735 17.565-50.96 17.565-3.312 0-6.578-.194-9.788-.574 18.159 11.643 39.727 18.437 62.899 18.437 75.473 0 116.746-62.524 116.746-116.747 0-1.779-.04-3.548-.119-5.309A83.362 83.362 0 0 0 250 87.974z" fill="#3aaae1"/></svg>