<svg width="301" height="100" viewBox="0 0 301 100" xmlns="http://www.w3.org/2000/svg"><g fill="none" fill-rule="evenodd"><rect fill="#F7F8F6" fill-rule="nonzero" width="301" height="100" rx="37"/><text transform="translate(108.2 22.4)" fill="#405236" font-family="OpenSansLight-Italic, Open Sans" font-size="42.4" font-style="italic" font-weight="300"><tspan x="0" y="45">Verdaccio</tspan></text><path d="M75 45.1L59.8 75.5H51L27.4 28.3h15.2l12.8 25.6 4.4-8.8z" fill="#000" fill-rule="nonzero"/><path d="M75 45.1L59.8 75.5H51L27.4 28.3h15.2l12.8 25.6 4.4-8.8z" fill="#405236"/><path stroke="#405236" stroke-width="2.4" d="M73.058 46.3H60.542L55.4 56.583 41.858 29.5H29.342l22.4 44.8h7.316z"/><path d="M77.8 39.5H62.6l5.6-11.2h15.2z" fill="#000" fill-rule="nonzero"/><path d="M77.8 39.5H62.6l5.6-11.2h15.2z" fill="#CD4000"/><path stroke="#CD4000" stroke-width="2.4" d="M77.058 38.3l4.4-8.8H68.942l-4.4 8.8z"/><path d="M59.8 75.5H51L27.4 28.3h15.2l20.377 40.89z" fill="#4A5E3F"/><path stroke="#405236" stroke-width="2.4" d="M59.06 74.3l2.575-5.112L41.857 29.5H29.342l22.4 44.8z"/><path d="M64.6 29.5h15.221m-19.221 4h15.221M56.6 38.3h15.221" stroke="#CD4000" stroke-width="2.4" stroke-linecap="square"/></g></svg>